<svg xmlns="http://www.w3.org/2000/svg" xmlns:xlink="http://www.w3.org/1999/xlink"><symbol id="arrow" viewBox="0 0 11 20"><path fill-rule="evenodd" d="M1.283 0 0 1.32 8.433 10 0 18.68 1.283 20 11 10 1.283 0Z" clip-rule="evenodd"/></symbol><symbol id="cross" viewBox="0 0 20 20"><g fill="none"><path fill="#fff" fill-rule="evenodd" d="M.177 1.031a.604.604 0 0 1 .854-.854l8.97 8.969 8.968-8.97a.604.604 0 0 1 .854.855L10.854 10l8.97 8.969a.604.604 0 1 1-.855.854L10 10.854l-8.969 8.97a.604.604 0 1 1-.854-.855L9.146 10 .177 1.031Z" clip-rule="evenodd"/></g></symbol><symbol id="detective" viewBox="0 0 35 35"><path d="M17.5 11.02c-.38 0-.68.36-.68.8 0 .44.3.8.68.8.38 0 .68-.36.68-.8 0-.44-.3-.8-.68-.8Z"/><path d="M32.95 15.81h-2.66C28.89 11.13 26.85 2.92 23.17.6c-1.85-1.16-3.59-.35-4.24 1.3-.28.7-.84 1.06-1.43 1.06-.6 0-1.15-.37-1.43-1.06-.63-1.6-2.33-2.48-4.1-1.47C8.21 2.56 6.11 11.1 4.7 15.8H2.05C.92 15.81 0 16.9 0 18.21c0 1.32.92 2.4 2.05 2.4h30.9c1.13 0 2.05-1.07 2.05-2.4 0-1.32-.92-2.4-2.05-2.4ZM7.1 12.61h7.66c.37 0 .68-.35.68-.8 0-.43-.3-.8-.68-.8H7.59c2.06-6.65 3.99-8.58 4.97-9.14 1.07-.61 1.96-.1 2.27.7.5 1.26 1.54 2 2.67 2s2.17-.74 2.67-2c.32-.82 1.21-1.28 2.35-.56.99.62 2.9 2.62 4.89 9h-7.18c-.37 0-.68.37-.68.8 0 .45.3.8.68.8h7.66l.95 3.2H6.16l.95-3.2Zm25.84 6.4H2.05c-.38 0-.68-.36-.68-.8 0-.44.3-.8.68-.8h30.9c.38 0 .68.36.68.8 0 .44-.3.8-.68.8ZM16.13 23.8H5.2c-.38 0-.69.37-.69.8v3.2c0 3.97 2.76 7.2 6.15 7.2 2.57 0 4.85-1.85 5.75-4.63a2.28 2.28 0 0 1 2.18 0c.9 2.78 3.18 4.63 5.75 4.63 3.39 0 6.15-3.23 6.15-7.2v-3.2c0-.43-.3-.8-.69-.8H18.87c-.38 0-.69.37-.69.8v.8h-1.36v-.8c0-.43-.31-.8-.69-.8Zm-5.47 9.6c-2.63 0-4.78-2.5-4.78-5.6v-2.4h9.57v2.4c0 3.1-2.14 5.6-4.79 5.6Zm8.9-8h9.56v2.4c0 3.1-2.15 5.6-4.78 5.6-2.66 0-4.79-2.5-4.79-5.6v-2.4ZM18.17 27v.8c0 .26.02.52.04.77-.48-.1-.96-.1-1.44 0 .02-.25.04-.5.04-.76V27h1.36Z"/><path d="M10.66 30.2c-1.13 0-2.05-1.07-2.05-2.4 0-.44-.3-.8-.68-.8-.38 0-.68.36-.68.8 0 2.2 1.53 4 3.41 4 .38 0 .69-.36.69-.8 0-.44-.3-.8-.69-.8ZM24.34 31.8c1.88 0 3.41-1.8 3.41-4 0-.44-.3-.8-.68-.8-.38 0-.68.36-.68.8 0 1.33-.92 2.4-2.05 2.4-.38 0-.69.36-.69.8 0 .44.3.8.69.8Z"/></symbol><symbol id="hired" viewBox="0 0 35 35"><path d="M31.26 27.9c.38-.53.6-1.16.6-1.85v-4.1c0-.38-.3-.69-.68-.69h-3.06a2.56 2.56 0 0 0-2.56 2.56v2.23c0 .69.22 1.32.6 1.84a4.4 4.4 0 0 0-1.34.45 5.82 5.82 0 0 0-4.3-2.56h-.01a4.02 4.02 0 0 0 1.03-2.7V17.5c0-.38-.31-.68-.69-.68H16.7a3.24 3.24 0 0 0-3.24 3.23v3.03c0 1.04.4 1.98 1.03 2.7h-.02a5.82 5.82 0 0 0-4.3 2.56 4.4 4.4 0 0 0-1.33-.45c.38-.52.6-1.15.6-1.84v-4.1c0-.38-.3-.69-.68-.69H5.7a2.56 2.56 0 0 0-2.56 2.56v2.23c0 .69.22 1.32.6 1.84A4.46 4.46 0 0 0 0 32.3v2.03c0 .37.3.68.68.68h33.64c.37 0 .68-.3.68-.68v-2.03a4.46 4.46 0 0 0-3.74-4.4ZM4.51 23.81c0-.66.53-1.2 1.19-1.2h2.37v.84c0 .4-.33.74-.74.74H4.51v-.38Zm0 1.75h2.82c.26 0 .51-.05.74-.14v.62a1.78 1.78 0 0 1-3.56 0v-.48Zm2.22 3.63-.44.44-.44-.44h.88Zm2.47 2.36v2.07H1.37V32.3a3.1 3.1 0 0 1 2.59-3.05L5.8 31.1a.68.68 0 0 0 .96 0l1.85-1.85c.33.05.64.16.94.31-.24.63-.36 1.3-.36 2.01Zm8.3-5.8a2.67 2.67 0 0 1-2.67-2.68v-.9h4.09c.45 0 .88-.12 1.25-.32v1.22c0 1.47-1.2 2.67-2.67 2.67Zm1.2 1.36-1.2 1.19-1.2-1.2h2.4Zm-3.87-7.07c0-1.03.84-1.87 1.87-1.87h3.47v1.38c0 .7-.56 1.25-1.25 1.25h-4.09v-.76Zm9.6 13.58H10.57v-1.36h4.45a.68.68 0 1 0 0-1.37h-4.4a4.45 4.45 0 0 1 3.8-3.74l2.6 2.6a.68.68 0 0 0 .96 0l2.6-2.6a4.45 4.45 0 0 1 3.85 4.4v2.07Zm2.5-9.8c0-.67.53-1.2 1.2-1.2h2.36v.83c0 .4-.33.74-.74.74h-2.82v-.38Zm0 1.74h2.82c.26 0 .51-.05.74-.14v.62a1.78 1.78 0 0 1-3.56 0v-.48Zm2.22 3.63-.44.44-.44-.44h.88Zm-3.35 4.43v-2.07c0-.7-.12-1.38-.36-2 .3-.16.61-.27.94-.32l1.85 1.85a.68.68 0 0 0 .96 0l1.85-1.85a3.1 3.1 0 0 1 2.6 3.05v1.34H25.8ZM20.87 4.47a.68.68 0 0 0-.97 0l-3.35 3.35-1.45-1.45a.68.68 0 1 0-.97.97l1.93 1.93a.68.68 0 0 0 .97 0l3.84-3.84a.68.68 0 0 0 0-.96Z"/><path d="M20.3.6a.68.68 0 0 0-.56 1.24 5.51 5.51 0 1 1-4.5.01.68.68 0 1 0-.56-1.24 6.88 6.88 0 0 0 2.82 13.13A6.88 6.88 0 0 0 20.3.59Z"/><path d="M17.52 0h-.02a.68.68 0 0 0 0 1.37h.02a.68.68 0 0 0 0-1.37ZM17.98 31.1a.69.69 0 0 0-.96 0 .69.69 0 0 0 0 .97.69.69 0 0 0 .96 0 .69.69 0 0 0 0-.97Z"/></symbol><symbol id="logo-full" viewBox="0 0 215 55"><path d="M78.96 23.325a4.06 4.06 0 0 0-.085-.867c-.058-.26-.18-.5-.367-.72-.179-.22-.443-.44-.793-.66a9.215 9.215 0 0 0-1.343-.683c-.66-.277-1.298-.57-1.916-.879a9.005 9.005 0 0 1-1.673-1.098 4.772 4.772 0 0 1-1.184-1.465c-.285-.57-.427-1.237-.427-2.002 0-.749.134-1.428.403-2.039a4.443 4.443 0 0 1 1.172-1.562 5.35 5.35 0 0 1 1.77-1.014c.683-.236 1.444-.354 2.282-.354 1.14 0 2.124.236 2.954.708a4.946 4.946 0 0 1 1.941 1.941c.464.822.696 1.766.696 2.832h-3.564c0-.504-.074-.948-.22-1.33a1.843 1.843 0 0 0-.671-.916c-.31-.22-.708-.33-1.197-.33-.455 0-.834.094-1.135.281a1.675 1.675 0 0 0-.66.745c-.138.31-.207.66-.207 1.05 0 .293.07.557.208.793.146.228.346.436.598.623.252.179.55.354.891.525.35.17.732.337 1.148.5a13.4 13.4 0 0 1 2.136 1.05 6.576 6.576 0 0 1 1.55 1.27c.415.463.728.988.94 1.574.212.586.317 1.254.317 2.002 0 .74-.13 1.416-.39 2.027a4.328 4.328 0 0 1-1.111 1.562 5.147 5.147 0 0 1-1.77 1.001c-.684.236-1.449.354-2.295.354-.822 0-1.6-.114-2.332-.342a5.698 5.698 0 0 1-1.94-1.062 4.994 4.994 0 0 1-1.307-1.819c-.317-.74-.476-1.615-.476-2.624h3.577c0 .537.053.997.159 1.38.106.374.268.675.488.903.22.22.488.386.806.5.325.106.695.159 1.11.159.472 0 .847-.09 1.123-.269.285-.179.489-.419.61-.72.123-.301.184-.643.184-1.025Zm9.253-5.799V28h-3.43V14.792h3.222l.208 2.734Zm-.488 3.418-.94.025c-.017-.928.065-1.783.244-2.564.179-.781.447-1.46.806-2.038a3.953 3.953 0 0 1 1.379-1.343c.553-.317 1.2-.476 1.94-.476.48 0 .925.09 1.331.268.407.171.761.444 1.062.818.302.366.533.847.696 1.44.163.587.244 1.29.244 2.112V28H91.07v-8.398c0-.586-.057-1.034-.17-1.343-.115-.318-.277-.537-.489-.66-.211-.13-.472-.195-.781-.195-.326 0-.61.09-.855.269a1.952 1.952 0 0 0-.598.757c-.146.317-.26.691-.341 1.123-.074.431-.11.895-.11 1.391Zm6.433-.341-1.233.158c-.016-.87.06-1.68.232-2.429.17-.757.435-1.416.793-1.977a3.959 3.959 0 0 1 1.343-1.331c.545-.317 1.176-.476 1.892-.476.537 0 1.025.09 1.465.268.44.18.814.468 1.123.867.317.39.557.907.72 1.55.171.643.257 1.425.257 2.344V28h-3.43v-8.41c0-.595-.058-1.05-.172-1.368-.114-.317-.276-.533-.488-.647a1.575 1.575 0 0 0-.757-.17c-.293 0-.549.08-.769.243-.211.163-.39.391-.537.684a3.703 3.703 0 0 0-.33 1.013c-.073.383-.11.802-.11 1.258Zm14.99 4.357v-6.103c0-.399-.049-.716-.147-.952a.941.941 0 0 0-.415-.513 1.202 1.202 0 0 0-.659-.17c-.293 0-.537.06-.732.182a1.125 1.125 0 0 0-.44.525c-.089.228-.134.5-.134.818h-3.43c0-.57.11-1.107.33-1.611.219-.513.541-.96.964-1.343a4.68 4.68 0 0 1 1.538-.916c.594-.22 1.261-.33 2.002-.33.879 0 1.66.151 2.344.452.683.293 1.224.761 1.623 1.404.399.643.598 1.477.598 2.503v5.884c0 .74.037 1.342.11 1.806.082.464.2.863.354 1.197V28h-3.442c-.155-.366-.273-.822-.354-1.367-.073-.554-.11-1.111-.11-1.673Zm.415-5.029.012 2.05h-1.257c-.326 0-.61.054-.855.16a1.644 1.644 0 0 0-.598.451 1.853 1.853 0 0 0-.366.66c-.073.252-.11.52-.11.805 0 .318.045.586.134.806.09.22.224.386.403.5.179.114.391.171.635.171.374 0 .7-.077.977-.232.276-.154.48-.342.61-.561.138-.22.183-.424.134-.61l.781 1.33a5.964 5.964 0 0 1-.402.94 3.994 3.994 0 0 1-.623.903 3.013 3.013 0 0 1-.94.684c-.366.17-.801.256-1.306.256a3.93 3.93 0 0 1-1.941-.488 3.625 3.625 0 0 1-1.392-1.367c-.333-.586-.5-1.282-.5-2.088 0-.667.106-1.27.317-1.806.22-.546.546-1.005.977-1.38.431-.382.976-.675 1.636-.879.659-.203 1.432-.305 2.319-.305h1.355Zm8.972-2.197V28h-3.418V14.792h3.223l.195 2.942Zm3.113-3.04-.049 3.406a4.323 4.323 0 0 0-.561-.073 7.424 7.424 0 0 0-.562-.025c-.382 0-.708.062-.976.184a1.628 1.628 0 0 0-.672.524 2.428 2.428 0 0 0-.39.855c-.09.342-.143.728-.159 1.16l-.647-.245c0-.862.065-1.652.195-2.368.138-.724.342-1.35.611-1.88.268-.537.59-.952.964-1.245.382-.293.814-.44 1.294-.44.163 0 .333.017.512.05.188.024.334.057.44.097Zm8.118.098v2.576h-6.739v-2.576h6.739Zm-5.188-3.26h3.405v12.44c0 .366.037.647.11.842.074.195.183.334.33.415.154.073.358.11.61.11.171 0 .33-.008.476-.024a2.33 2.33 0 0 0 .33-.074v2.674a4.748 4.748 0 0 1-.855.244 5.575 5.575 0 0 1-1.049.085c-.684 0-1.278-.13-1.783-.39-.496-.26-.883-.676-1.159-1.246-.277-.577-.415-1.334-.415-2.27V11.533ZM142.241 28h-3.137l.024-2.954h3.113c.863 0 1.534-.155 2.014-.464.481-.31.818-.797 1.014-1.465.203-.667.305-1.542.305-2.624v-2.771c0-.822-.053-1.518-.159-2.088-.106-.578-.285-1.041-.537-1.391a2.23 2.23 0 0 0-1.013-.794c-.423-.17-.948-.256-1.575-.256h-3.247v-2.966h3.247c1.025 0 1.957.166 2.795.5a5.913 5.913 0 0 1 2.161 1.465c.602.635 1.066 1.42 1.392 2.356.325.936.488 2.002.488 3.198v2.747c0 1.204-.163 2.27-.488 3.198-.326.928-.79 1.713-1.392 2.356a5.852 5.852 0 0 1-2.161 1.453c-.846.333-1.794.5-2.844.5Zm-1.062-17.773V28h-3.576V10.227h3.576Zm15.711 18.017c-.904 0-1.705-.138-2.405-.415a4.754 4.754 0 0 1-1.758-1.196c-.48-.53-.846-1.168-1.099-1.917-.252-.748-.378-1.603-.378-2.563v-1.087c0-1.074.122-2.014.366-2.82.244-.813.59-1.497 1.038-2.05a4.096 4.096 0 0 1 1.648-1.233c.659-.277 1.404-.415 2.234-.415.83 0 1.558.138 2.185.415a3.813 3.813 0 0 1 1.574 1.22c.415.538.729 1.205.94 2.003.212.797.318 1.725.318 2.783v1.562h-8.85v-2.404h5.493v-.306c0-.537-.057-.984-.171-1.343-.114-.366-.293-.638-.537-.817-.244-.18-.57-.269-.977-.269-.342 0-.63.07-.866.208a1.426 1.426 0 0 0-.562.647c-.138.293-.24.675-.305 1.147a12.268 12.268 0 0 0-.098 1.672v1.087c0 .61.053 1.123.159 1.538.106.407.26.74.464 1 .211.253.468.436.769.55.301.106.651.159 1.05.159.602 0 1.143-.106 1.623-.317.488-.22.903-.517 1.245-.892l1.367 2.076c-.236.309-.561.618-.976.927-.415.31-.912.562-1.489.757-.578.195-1.246.293-2.002.293Zm10.363-2.88 2.124-10.572h3.565L169.316 28h-2.136l.073-2.637Zm-1.257-10.572 2.161 10.583.036 2.625h-2.148l-3.626-13.208h3.577Zm12.183 0V28h-3.43V14.792h3.43Zm-3.589-3.418c0-.529.167-.964.5-1.306.342-.35.798-.525 1.368-.525.577 0 1.033.175 1.367.525.333.342.5.777.5 1.306 0 .52-.171.956-.513 1.306-.333.342-.781.513-1.342.513-.578 0-1.038-.171-1.38-.513-.333-.35-.5-.785-.5-1.306ZM185.662 25.4c.317 0 .59-.065.817-.195.236-.13.416-.342.538-.635.122-.293.187-.672.195-1.135h3.21c0 .992-.211 1.851-.634 2.575a4.345 4.345 0 0 1-1.685 1.66c-.7.383-1.493.574-2.38.574-.887 0-1.661-.142-2.32-.427a4.142 4.142 0 0 1-1.635-1.245c-.424-.546-.745-1.209-.965-1.99-.211-.79-.317-1.693-.317-2.71v-.964c0-1.001.106-1.896.317-2.686.22-.79.541-1.457.965-2.002a4.16 4.16 0 0 1 1.623-1.245c.659-.285 1.432-.427 2.319-.427.953 0 1.779.2 2.478.598.7.39 1.246.968 1.636 1.733.399.765.598 1.71.598 2.832h-3.21c-.008-.504-.069-.923-.183-1.257-.106-.342-.273-.602-.501-.781-.219-.187-.512-.28-.879-.28-.382 0-.691.08-.927.243a1.46 1.46 0 0 0-.525.684c-.114.293-.191.659-.232 1.099-.041.439-.061.935-.061 1.489v.964c0 .594.016 1.11.049 1.55.04.432.118.798.232 1.099.122.293.297.513.524.66.236.146.554.219.953.219Zm12.048 2.844c-.903 0-1.705-.138-2.405-.415a4.762 4.762 0 0 1-1.758-1.196 5.35 5.35 0 0 1-1.098-1.917c-.253-.748-.379-1.603-.379-2.563v-1.087c0-1.074.122-2.014.367-2.82.244-.813.59-1.497 1.037-2.05a4.103 4.103 0 0 1 1.648-1.233c.659-.277 1.404-.415 2.234-.415.83 0 1.558.138 2.185.415a3.81 3.81 0 0 1 1.575 1.22c.415.538.728 1.205.94 2.003.211.797.317 1.725.317 2.783v1.562h-8.85v-2.404h5.493v-.306c0-.537-.057-.984-.171-1.343-.114-.366-.293-.638-.537-.817-.244-.18-.57-.269-.976-.269-.342 0-.631.07-.867.208-.236.138-.423.354-.562.647-.138.293-.24.675-.305 1.147a12.268 12.268 0 0 0-.098 1.672v1.087c0 .61.053 1.123.159 1.538.106.407.261.74.464 1 .212.253.468.436.769.55.301.106.651.159 1.05.159.602 0 1.143-.106 1.623-.317a3.74 3.74 0 0 0 1.246-.892l1.367 2.076c-.236.309-.562.618-.977.927-.415.31-.911.562-1.489.757-.578.195-1.245.293-2.002.293Z"/><path fill="currentColor" fill-opacity=".7" d="m72.566 45.309 1.723-5.649h1.512l-2.543 7.307a4.986 4.986 0 0 1-.229.51 2.313 2.313 0 0 1-.369.521 1.637 1.637 0 0 1-.556.404 1.877 1.877 0 0 1-.81.158c-.124 0-.245-.011-.362-.035a5.785 5.785 0 0 1-.323-.064l-.005-1.078a5.127 5.127 0 0 0 .28.017c.235 0 .43-.029.587-.087a.812.812 0 0 0 .38-.27c.102-.125.188-.293.258-.504l.457-1.23Zm-.972-5.649 1.506 4.746.252 1.489-.979.252-2.303-6.487h1.524Zm8.783 4.63 1.887-4.63h1.224L80.858 46h-.962l-2.624-6.34h1.224l1.881 4.63Zm-2.244-4.63V46H76.72v-6.34h1.412ZM82.62 46v-6.34h1.418V46h-1.418Zm7.33-3.691v1.113H86.67v-1.113h3.281Zm-2.87-2.649V46h-1.413v-6.34h1.412Zm3.89 0V46h-1.412v-6.34h1.412Zm2.554 2.016h1.87c.546 0 1.011.092 1.394.275.383.184.674.44.873.768.203.324.305.695.305 1.113 0 .309-.057.596-.17.861-.113.262-.281.49-.504.686a2.324 2.324 0 0 1-.809.457 3.33 3.33 0 0 1-1.09.164h-2.806v-6.34h1.418v5.22h1.388c.282 0 .506-.048.674-.146a.872.872 0 0 0 .364-.38 1.147 1.147 0 0 0 0-1.008.898.898 0 0 0-.364-.393c-.168-.101-.392-.152-.674-.152h-1.869v-1.125Zm6.938-2.016V46h-1.412v-6.34h1.412Zm4.465 6.457c-.469 0-.893-.076-1.272-.228a2.812 2.812 0 0 1-.961-.65 2.884 2.884 0 0 1-.603-.98 3.418 3.418 0 0 1-.211-1.212v-.234c0-.497.072-.946.217-1.348.144-.403.345-.746.603-1.031.258-.29.563-.51.914-.662a2.846 2.846 0 0 1 1.143-.229c.453 0 .849.076 1.189.229.34.152.621.367.844.644.227.274.395.6.504.979.113.378.17.796.17 1.253v.604h-4.899v-1.014h3.504v-.111a1.981 1.981 0 0 0-.152-.715 1.22 1.22 0 0 0-.416-.539c-.188-.137-.438-.205-.75-.205-.234 0-.443.05-.627.152-.18.098-.33.24-.451.428a2.244 2.244 0 0 0-.281.68 3.793 3.793 0 0 0-.094.885v.234c0 .277.037.535.111.773.078.235.192.44.34.615.148.176.328.315.539.417.211.097.451.146.721.146.34 0 .642-.068.908-.205.266-.137.496-.33.691-.58l.745.72c-.137.2-.315.391-.534.575-.218.18-.486.326-.802.44-.313.112-.676.17-1.09.17Zm9.568-6.457V46h-1.418v-6.34h1.418Zm2.08 0v1.113h-5.543V39.66h5.543Zm3.305 6.457c-.469 0-.893-.076-1.272-.228a2.812 2.812 0 0 1-.961-.65 2.9 2.9 0 0 1-.603-.98 3.418 3.418 0 0 1-.211-1.212v-.234c0-.497.072-.946.217-1.348.144-.403.345-.746.603-1.031.258-.29.563-.51.914-.662a2.846 2.846 0 0 1 1.143-.229c.453 0 .85.076 1.189.229.34.152.621.367.844.644.227.274.395.6.504.979.113.378.17.796.17 1.253v.604h-4.898v-1.014h3.503v-.111a1.96 1.96 0 0 0-.152-.715 1.213 1.213 0 0 0-.416-.539c-.187-.137-.437-.205-.75-.205-.234 0-.443.05-.627.152-.18.098-.33.24-.451.428a2.244 2.244 0 0 0-.281.68 3.793 3.793 0 0 0-.094.885v.234c0 .277.037.535.111.773.078.235.192.44.34.615.149.176.328.315.539.417.211.097.451.146.721.146.34 0 .642-.068.908-.205.266-.137.496-.33.691-.58l.745.72c-.137.2-.315.391-.534.575-.218.18-.486.326-.802.44-.313.112-.676.17-1.09.17Zm4.717-6.457 1.207 2.104 1.23-2.104h1.553l-1.922 3.112L128.664 46h-1.553l-1.289-2.191L124.533 46h-1.558l1.992-3.228-1.916-3.112h1.547Zm9.287 2.649v1.113h-3.281v-1.113h3.281Zm-2.871-2.649V46h-1.412v-6.34h1.412Zm3.89 0V46h-1.412v-6.34h1.412Zm1.237 3.24v-.134c0-.457.066-.881.199-1.272.133-.394.324-.736.574-1.025.254-.293.563-.52.926-.68a3.011 3.011 0 0 1 1.242-.246c.465 0 .879.082 1.242.246.367.16.678.387.932.68.254.289.447.63.58 1.025.133.39.199.815.199 1.272v.134c0 .457-.066.881-.199 1.272-.133.39-.326.732-.58 1.025a2.693 2.693 0 0 1-.926.68c-.363.16-.775.24-1.236.24-.465 0-.881-.08-1.248-.24a2.684 2.684 0 0 1-.926-.68 3.044 3.044 0 0 1-.58-1.025 3.922 3.922 0 0 1-.199-1.272Zm1.412-.134v.134c0 .285.029.555.088.809.058.254.15.476.275.668.125.191.285.342.48.451.196.11.428.164.698.164.261 0 .488-.054.679-.164.196-.11.356-.26.481-.451.125-.192.217-.414.275-.668.063-.254.094-.524.094-.809v-.134c0-.282-.031-.547-.094-.797a2.032 2.032 0 0 0-.281-.674 1.346 1.346 0 0 0-.48-.457 1.324 1.324 0 0 0-.686-.17 1.35 1.35 0 0 0-.691.17c-.192.11-.35.262-.475.457a2.11 2.11 0 0 0-.275.674c-.059.25-.088.515-.088.797Zm9.832-3.106v1.125h-3.094V39.66h3.094Zm1.107 0V46h-1.412v-6.34h1.412Zm-4.547 0h1.395l-.17 3.135c-.024.465-.07.875-.141 1.23a4.105 4.105 0 0 1-.269.909c-.114.25-.252.453-.416.609a1.544 1.544 0 0 1-.574.346 2.294 2.294 0 0 1-.739.111h-.439l-.006-1.16.223-.018a.868.868 0 0 0 .375-.111.849.849 0 0 0 .269-.281c.078-.121.141-.278.188-.47.05-.19.089-.417.117-.679.031-.261.054-.566.07-.914l.117-2.707Zm5.778 3.24v-.134c0-.457.066-.881.199-1.272.133-.394.324-.736.574-1.025.254-.293.563-.52.926-.68a3.011 3.011 0 0 1 1.242-.246c.465 0 .879.082 1.242.246.367.16.678.387.932.68.254.289.447.63.58 1.025.133.39.199.815.199 1.272v.134c0 .457-.066.881-.199 1.272-.133.39-.326.732-.58 1.025a2.693 2.693 0 0 1-.926.68c-.363.16-.775.24-1.236.24-.465 0-.881-.08-1.248-.24a2.684 2.684 0 0 1-.926-.68 3.044 3.044 0 0 1-.58-1.025 3.922 3.922 0 0 1-.199-1.272Zm1.412-.134v.134c0 .285.029.555.088.809.058.254.15.476.275.668.125.191.285.342.481.451.195.11.427.164.697.164.262 0 .488-.054.679-.164.196-.11.356-.26.481-.451.125-.192.217-.414.275-.668.063-.254.094-.524.094-.809v-.134c0-.282-.031-.547-.094-.797a2.032 2.032 0 0 0-.281-.674 1.346 1.346 0 0 0-.48-.457 1.324 1.324 0 0 0-.686-.17 1.35 1.35 0 0 0-.691.17c-.192.11-.35.262-.475.457a2.11 2.11 0 0 0-.275.674c-.059.25-.088.515-.088.797Zm9.885-3.106v1.125h-2.766V46h-1.412v-6.34h4.178Zm2.279 4.278 2.49-4.278h1.412V46h-1.412v-4.283L163.299 46h-1.412v-6.34h1.412v4.278Zm6.855 0 2.491-4.278h1.412V46h-1.412v-4.283L170.154 46h-1.412v-6.34h1.412v4.278Z"/><path fill="#00B2FF" fill-opacity="1" d="M33.917 14.666c1.193 0 2.202.77 2.581 1.834h9.504a2.746 2.746 0 0 1 2.581-1.834 2.753 2.753 0 0 1 2.75 2.75 2.753 2.753 0 0 1-2.75 2.75 2.746 2.746 0 0 1-2.58-1.833h-9.506a2.746 2.746 0 0 1-2.581 1.833 2.753 2.753 0 0 1-2.75-2.75 2.754 2.754 0 0 1 2.75-2.75Zm14.666 3.667a.918.918 0 0 0 0-1.833.918.918 0 0 0 0 1.833Zm-14.666 0a.918.918 0 0 0 0-1.833.918.918 0 0 0 0 1.833Z"/><path fill="#00B2FF" fill-opacity="1" d="M26.583 20.335v-5.669c0-.243.096-.476.269-.648l3.666-3.666a.914.914 0 0 1 .648-.269h2.92a2.746 2.746 0 0 1 2.58-1.833 2.753 2.753 0 0 1 2.75 2.75 2.753 2.753 0 0 1-2.75 2.75 2.746 2.746 0 0 1-2.58-1.834h-2.54l-3.13 3.13v5.289a2.746 2.746 0 0 1 1.834 2.581 2.753 2.753 0 0 1-2.75 2.75 2.753 2.753 0 0 1-2.75-2.75c0-1.193.769-2.201 1.833-2.581Zm10.084-8.419a.918.918 0 0 0 0-1.833.918.918 0 0 0 0 1.833ZM27.5 23.834a.918.918 0 0 0 0-1.833.918.918 0 0 0 0 1.833ZM10.083 23.833c.424 0 .82.104 1.178.276l1.572-1.572V13.75c0-.244.097-.477.269-.648l9.174-9.174A2.705 2.705 0 0 1 22 2.75 2.753 2.753 0 0 1 24.75 0a2.753 2.753 0 0 1 2.75 2.75 2.753 2.753 0 0 1-2.75 2.75c-.424 0-.82-.104-1.178-.276l-8.905 8.905v8.787a.913.913 0 0 1-.269.648l-1.84 1.841c.172.358.275.754.275 1.178a2.753 2.753 0 0 1-2.75 2.75 2.753 2.753 0 0 1-2.75-2.75 2.753 2.753 0 0 1 2.75-2.75ZM24.75 3.667a.918.918 0 0 0 0-1.834.918.918 0 0 0 0 1.834ZM10.083 27.5a.918.918 0 0 0 0-1.834.918.918 0 0 0 0 1.834ZM1.833 13.002V9.167c0-.244.097-.477.269-.649l6.417-6.416a.914.914 0 0 1 .648-.269h4.752A2.746 2.746 0 0 1 16.5 0a2.753 2.753 0 0 1 2.75 2.75A2.753 2.753 0 0 1 16.5 5.5a2.746 2.746 0 0 1-2.581-1.833H9.546l-5.88 5.879v3.456A2.746 2.746 0 0 1 5.5 15.583a2.753 2.753 0 0 1-2.75 2.75A2.753 2.753 0 0 1 0 15.583c0-1.193.77-2.202 1.833-2.581ZM16.5 3.667a.918.918 0 0 0 0-1.834.918.918 0 0 0 0 1.834ZM2.75 16.5a.918.918 0 0 0 0-1.834.918.918 0 0 0 0 1.834ZM14.666 49.669V36.497a2.747 2.747 0 0 1-1.833-2.58 2.753 2.753 0 0 1 2.75-2.75c1.194 0 2.202.768 2.582 1.832h9.504a2.746 2.746 0 0 1 2.581-1.833c1.194 0 2.202.77 2.581 1.833h5.29l3.405-3.405a2.705 2.705 0 0 1-.276-1.178 2.753 2.753 0 0 1 2.75-2.75 2.753 2.753 0 0 1 2.75 2.75 2.753 2.753 0 0 1-2.75 2.75c-.423 0-.82-.103-1.178-.276l-3.674 3.674a.914.914 0 0 1-.648.269h-5.669a2.746 2.746 0 0 1-2.581 1.833 2.746 2.746 0 0 1-2.581-1.833h-9.505a2.747 2.747 0 0 1-1.665 1.664V49.67a2.746 2.746 0 0 1 1.833 2.581 2.753 2.753 0 0 1-2.75 2.75 2.753 2.753 0 0 1-2.75-2.75c0-1.193.77-2.202 1.834-2.581ZM44 29.333a.918.918 0 0 0 0-1.833.918.918 0 0 0 0 1.833Zm-13.75 5.5a.918.918 0 0 0 0-1.834.918.918 0 0 0 0 1.834ZM15.583 53.166a.918.918 0 0 0 0-1.833.918.918 0 0 0 0 1.833Zm0-18.333a.918.918 0 0 0 0-1.834.918.918 0 0 0 0 1.834Z"/><path fill="#00B2FF" fill-opacity="1" d="M19.25 18.502v-2.919c0-.244.096-.477.268-.648L30.526 3.928a2.704 2.704 0 0 1-.276-1.178A2.753 2.753 0 0 1 33 0c1.193 0 2.202.77 2.581 1.833h3.835c.507 0 .917.41.917.917v2.37l3.406 3.406a2.705 2.705 0 0 1 1.178-.276 2.753 2.753 0 0 1 2.75 2.75 2.753 2.753 0 0 1-2.75 2.75 2.753 2.753 0 0 1-2.75-2.75c0-.424.103-.82.275-1.178l-3.674-3.674A.913.913 0 0 1 38.5 5.5V3.667H35.58A2.746 2.746 0 0 1 33 5.5c-.424 0-.82-.104-1.178-.276L21.083 15.963v2.539a2.746 2.746 0 0 1 1.834 2.581 2.753 2.753 0 0 1-2.75 2.75 2.753 2.753 0 0 1-2.75-2.75c0-1.193.769-2.202 1.833-2.581Zm25.666-6.585a.918.918 0 0 0 0-1.834.918.918 0 0 0 0 1.833ZM33 3.666a.918.918 0 0 0 0-1.834.918.918 0 0 0 0 1.834ZM20.166 22a.918.918 0 0 0 0-1.834.918.918 0 0 0 0 1.834Z"/><path fill="#00B2FF" fill-opacity="1" d="M22 25.666c1.194 0 2.202.77 2.581 1.834h10.79l5.23-5.232A.914.914 0 0 1 41.25 22h9.704l2.213-2.213v-7.491l-7.072-7.072a2.705 2.705 0 0 1-1.178.276 2.753 2.753 0 0 1-2.75-2.75A2.753 2.753 0 0 1 44.917 0a2.753 2.753 0 0 1 2.75 2.75c0 .423-.104.82-.276 1.178l7.34 7.34a.913.913 0 0 1 .269.648v8.25a.913.913 0 0 1-.269.648l-2.75 2.75a.914.914 0 0 1-.648.269H41.63l-5.232 5.231a.914.914 0 0 1-.648.269H24.581A2.746 2.746 0 0 1 22 31.166a2.753 2.753 0 0 1-2.75-2.75 2.753 2.753 0 0 1 2.75-2.75ZM44.917 1.833a.918.918 0 0 0 0 1.834.918.918 0 0 0 0-1.834ZM22 29.333a.918.918 0 0 0 0-1.833.918.918 0 0 0 0 1.833ZM2.75 22c.424 0 .82.103 1.178.276l3.405-3.406v-5.289A2.746 2.746 0 0 1 5.5 11a2.753 2.753 0 0 1 2.75-2.75A2.753 2.753 0 0 1 11 11c0 1.193-.769 2.202-1.833 2.581v5.669a.913.913 0 0 1-.269.648l-3.674 3.674c.173.358.276.754.276 1.178 0 1.193-.769 2.201-1.833 2.58v.707l7.065 7.064a.913.913 0 0 1 .268.648v1.086a2.746 2.746 0 0 1 1.834 2.581c0 1.194-.77 2.202-1.834 2.581v2.172a2.746 2.746 0 0 1 1.834 2.581 2.753 2.753 0 0 1-2.75 2.75 2.753 2.753 0 0 1-2.75-2.75c0-1.193.769-2.202 1.833-2.581v-2.172a2.746 2.746 0 0 1-1.833-2.581c0-1.194.769-2.202 1.833-2.581v-.706l-7.065-7.065a.913.913 0 0 1-.268-.648v-1.085A2.746 2.746 0 0 1 0 24.75 2.753 2.753 0 0 1 2.75 22Zm5.5-10.084a.918.918 0 0 0 0-1.833.918.918 0 0 0 0 1.833Zm1.834 35.75a.918.918 0 0 0 0-1.833.918.918 0 0 0 0 1.833Zm0-7.333a.918.918 0 0 0 0-1.834.918.918 0 0 0 0 1.834ZM2.75 25.666a.918.918 0 0 0 0-1.833.918.918 0 0 0 0 1.833Z"/></symbol><symbol id="logo" viewBox="0 0 55 55"><path d="M33.92 14.67c1.19 0 2.2.77 2.58 1.83H46a2.75 2.75 0 1 1 0 1.83h-9.5a2.75 2.75 0 1 1-2.58-3.66Zm14.66 3.66a.92.92 0 1 0 0-1.83.92.92 0 0 0 0 1.83Zm-14.66 0a.92.92 0 1 0 0-1.83.92.92 0 0 0 0 1.83Z"/><path d="M26.58 20.34v-5.67c0-.25.1-.48.27-.65l3.67-3.67c.17-.17.4-.27.65-.27h2.92a2.75 2.75 0 1 1 0 1.84h-2.54l-3.13 3.13v5.29a2.75 2.75 0 1 1-1.84 0Zm10.09-8.42a.92.92 0 1 0 0-1.84.92.92 0 0 0 0 1.84ZM27.5 23.83a.92.92 0 1 0 0-1.83.92.92 0 0 0 0 1.83ZM10.08 23.83c.43 0 .82.1 1.18.28l1.57-1.57v-8.79c0-.24.1-.48.27-.65l9.18-9.17a2.75 2.75 0 1 1 2.47 1.57c-.42 0-.82-.1-1.18-.28l-8.9 8.9v8.8c0 .24-.1.47-.27.64l-1.84 1.85a2.75 2.75 0 1 1-2.47-1.57ZM24.75 3.67a.92.92 0 1 0 0-1.84.92.92 0 0 0 0 1.84ZM10.08 27.5a.92.92 0 1 0 0-1.84.92.92 0 0 0 0 1.84ZM1.83 13V9.17c0-.25.1-.48.27-.65L8.52 2.1c.17-.17.4-.27.65-.27h4.75a2.75 2.75 0 1 1 0 1.84H9.55L3.67 9.55V13a2.75 2.75 0 1 1-1.84 0ZM16.5 3.67a.92.92 0 1 0 0-1.84.92.92 0 0 0 0 1.84ZM2.75 16.5a.92.92 0 1 0 0-1.84.92.92 0 0 0 0 1.84ZM14.67 49.67V36.5a2.75 2.75 0 1 1 3.5-3.5h9.5a2.75 2.75 0 0 1 2.58-1.83c1.2 0 2.2.76 2.58 1.83h5.3l3.4-3.4A2.75 2.75 0 1 1 44 31.16c-.42 0-.82-.1-1.18-.28l-3.67 3.67a.91.91 0 0 1-.65.27h-5.67a2.75 2.75 0 0 1-2.58 1.84c-1.2 0-2.2-.77-2.58-1.84h-9.5a2.75 2.75 0 0 1-1.67 1.67v13.17a2.75 2.75 0 1 1-1.83 0ZM44 29.33a.92.92 0 1 0 0-1.83.92.92 0 0 0 0 1.83Zm-13.75 5.5a.92.92 0 1 0 0-1.83.92.92 0 0 0 0 1.83ZM15.58 53.17a.92.92 0 1 0 0-1.84.92.92 0 0 0 0 1.84Zm0-18.34a.92.92 0 1 0 0-1.83.92.92 0 0 0 0 1.83Z"/><path d="M19.25 18.5v-2.92c0-.24.1-.47.27-.64l11-11.01A2.75 2.75 0 0 1 33 0c1.2 0 2.21.77 2.6 1.83h3.83c.5 0 .91.41.91.92v2.37l3.4 3.4A2.75 2.75 0 1 1 42.17 11c0-.41.11-.81.28-1.17l-3.67-3.67a.91.91 0 0 1-.27-.65V3.67h-2.92a2.75 2.75 0 0 1-3.76 1.55L21.08 15.96v2.54a2.75 2.75 0 1 1-1.83 0Zm25.67-6.58a.92.92 0 1 0 0-1.84.92.92 0 0 0 0 1.84ZM33 3.67a.92.92 0 1 0 0-1.84.92.92 0 0 0 0 1.84ZM20.17 22a.92.92 0 1 0 0-1.84.92.92 0 0 0 0 1.84Z"/><path d="M22 25.67c1.2 0 2.2.77 2.58 1.83h10.8l5.22-5.23c.17-.17.4-.27.65-.27h9.7l2.22-2.21v-7.5l-7.08-7.07a2.75 2.75 0 1 1 1.57-2.47c0 .42-.1.82-.27 1.18l7.34 7.34c.17.17.27.4.27.65v8.25c0 .24-.1.47-.27.64l-2.75 2.75a.91.91 0 0 1-.65.27h-9.7l-5.23 5.23a.91.91 0 0 1-.65.27H24.58A2.75 2.75 0 1 1 22 25.67ZM44.92 1.83a.92.92 0 1 0 0 1.84.92.92 0 0 0 0-1.84ZM22 29.33a.92.92 0 1 0 0-1.83.92.92 0 0 0 0 1.83ZM2.75 22c.42 0 .82.1 1.18.28l3.4-3.41v-5.29a2.75 2.75 0 1 1 1.84 0v5.67c0 .24-.1.48-.27.65l-3.68 3.67a2.7 2.7 0 0 1-1.55 3.76v.7l7.06 7.07c.17.17.27.4.27.65v1.08a2.75 2.75 0 0 1 1.83 2.59c0 1.19-.77 2.2-1.83 2.58v2.17a2.75 2.75 0 1 1-1.83 0V42a2.75 2.75 0 0 1-1.84-2.58c0-1.2.77-2.2 1.84-2.59v-.7L2.1 29.06a.91.91 0 0 1-.27-.64v-1.09A2.75 2.75 0 0 1 2.75 22Zm5.5-10.08a.92.92 0 1 0 0-1.84.92.92 0 0 0 0 1.84Zm1.83 35.75a.92.92 0 1 0 0-1.84.92.92 0 0 0 0 1.84Zm0-7.34a.92.92 0 1 0 0-1.83.92.92 0 0 0 0 1.83ZM2.75 25.67a.92.92 0 1 0 0-1.84.92.92 0 0 0 0 1.84Z"/></symbol><symbol id="mail" viewBox="0 0 20 20"><path d="M17.56 0H2.45C1.1 0 0 1.44 0 3.21V16.8C0 18.56 1.1 20 2.45 20h15.1C18.9 20 20 18.56 20 16.79V3.22C20 1.45 18.9 0 17.56 0Zm1.33 16.79c0 .96-.6 1.74-1.33 1.74H2.45c-.74 0-1.33-.78-1.33-1.74V3.22c0-.96.6-1.75 1.33-1.75h15.1c.74 0 1.33.79 1.33 1.75v13.57Z"/><path d="m12.61 9.83 4.9-5.76a.9.9 0 0 0 .04-1.04c-.21-.3-.56-.33-.8-.06l-6.74 7.96-1.32-1.54v-.02a.95.95 0 0 0-.1-.1l-5.35-6.3c-.23-.27-.58-.25-.79.06a.9.9 0 0 0 .05 1.04l4.94 5.81-4.92 6.06a.9.9 0 0 0-.03 1.04c.11.15.26.24.41.24a.5.5 0 0 0 .38-.2l5-6.15 1.36 1.6c.11.12.24.18.37.18.14 0 .27-.07.38-.2l1.4-1.63 4.97 6.2c.1.14.24.2.38.2a.5.5 0 0 0 .4-.22.9.9 0 0 0-.01-1.04L12.6 9.83Z"/></symbol><symbol id="ok" viewBox="0 0 30 30"><path d="M15.17 12.64a2.03 2.03 0 0 0 .02-4.05 2.03 2.03 0 0 0-.02 4.05Z"/><path d="M15 0a15 15 0 1 0 0 30 15 15 0 0 0 0-30Zm.21 5.68a4.93 4.93 0 1 1-.04 9.86 4.93 4.93 0 0 1 .04-9.86Zm5.51 11.57-.02.1a1.4 1.4 0 0 1-.64 1.01 9.66 9.66 0 0 1-2.79 1.18c-.08.02-.08.02-.02.09l1.18 1.18 1.5 1.5c.7.7.51 1.88-.39 2.31-.15.09-.32.1-.49.15h-.28c-.02 0-.04 0-.04-.02a1.58 1.58 0 0 1-.88-.45l-2.6-2.6c-.06-.06-.06-.06-.12 0l-2.62 2.62c-.15.15-.3.26-.49.34-.13.07-.28.09-.4.11h-.28l-.11-.02c-.58-.1-.97-.43-1.14-.99a1.37 1.37 0 0 1 .37-1.45l1.07-1.07 1.58-1.59c.07-.06.07-.06-.02-.09l-.08-.02a9.26 9.26 0 0 1-2.68-1.13c-.5-.32-.73-.8-.67-1.37a1.44 1.44 0 0 1 2.21-1.08 6.1 6.1 0 0 0 5.25.62c.52-.17.97-.4 1.44-.66a1.45 1.45 0 0 1 2.16 1.12v.21Z"/></symbol><symbol id="phone" viewBox="0 0 20 20"><path d="M15.81 12.39c-.4-.43-.9-.66-1.42-.66-.52 0-1.02.23-1.45.66L11.6 13.7l-.32-.16a5.4 5.4 0 0 1-.42-.23 14.51 14.51 0 0 1-3.48-3.16 8.55 8.55 0 0 1-1.14-1.8c.35-.32.67-.65.98-.96l.36-.36c.88-.89.88-2.04 0-2.92L6.42 2.96l-.4-.4c-.25-.26-.51-.53-.79-.78a2 2 0 0 0-1.41-.62c-.52 0-1.02.21-1.44.62L.92 3.24C.4 3.77.1 4.43.02 5.2c-.1 1.23.26 2.38.54 3.13.68 1.84 1.7 3.55 3.23 5.38a19.89 19.89 0 0 0 6.63 5.18A10.33 10.33 0 0 0 14.4 20c.98 0 1.8-.35 2.44-1.05l.02-.02c.22-.26.47-.5.74-.76l.55-.55c.42-.43.64-.94.64-1.46s-.23-1.02-.65-1.44l-2.33-2.33Zm1.52 4.44-.52.52c-.27.26-.55.54-.81.84-.43.46-.93.67-1.6.67h-.19a9.18 9.18 0 0 1-3.3-.99c-2.39-1.15-4.49-2.8-6.23-4.88a17.13 17.13 0 0 1-3.05-5.06 6.02 6.02 0 0 1-.47-2.64c.04-.5.23-.9.58-1.25L3.18 2.6c.21-.2.43-.3.65-.3a.9.9 0 0 1 .61.3h.02l.76.76.4.41 1.15 1.15c.45.45.45.86 0 1.31l-.36.36c-.36.37-.7.7-1.06 1.03l-.02.02c-.37.37-.3.72-.22.96l.01.04c.3.73.72 1.41 1.37 2.23a15.5 15.5 0 0 0 3.75 3.41c.18.11.35.2.52.28.16.08.3.15.42.23.02 0 .04.02.05.03.15.07.28.1.42.1a.9.9 0 0 0 .64-.29l1.45-1.44c.14-.15.37-.32.64-.32.26 0 .48.17.6.3l.01.02 2.33 2.32c.44.43.44.88 0 1.32ZM10.81 4.76a5.38 5.38 0 0 1 4.43 4.42c.05.28.29.47.56.47h.1a.57.57 0 0 0 .47-.66A6.5 6.5 0 0 0 11 3.63a.57.57 0 0 0-.66.47c-.06.3.15.6.46.66Z"/><path d="M20 8.82a10.7 10.7 0 0 0-3.02-5.8c-1.6-1.6-3.6-2.64-5.82-3.01a.57.57 0 1 0-.18 1.12 9.6 9.6 0 0 1 7.89 7.88c.04.28.28.47.56.47h.1c.3-.05.52-.35.46-.66Z"/></symbol><symbol id="pinterest" viewBox="0 0 30 30"><path d="M15 0a15 15 0 1 1 0 30 15 15 0 0 1 0-30Z"/><path d="M15 5a10 10 0 1 0 .01 20.01A10 10 0 0 0 15 5Zm0 .87a9.12 9.12 0 1 1-2.65 17.87c.37-.63.85-1.52 1.04-2.26l.59-2.22c.3.58 1.2 1.07 2.14 1.07 2.82 0 4.85-2.6 4.85-5.81 0-3.1-2.52-5.4-5.76-5.4-4.04 0-6.18 2.7-6.18 5.66 0 1.37.73 3.07 1.9 3.62.18.08.27.04.31-.13l.26-1.06a.28.28 0 0 0-.06-.27 3.64 3.64 0 0 1-.7-2.13 4.05 4.05 0 0 1 4.22-4.06c2.3 0 3.9 1.57 3.9 3.8 0 2.54-1.27 4.29-2.93 4.29-.92 0-1.6-.76-1.39-1.7.27-1.1.78-2.3.78-3.1 0-.72-.39-1.32-1.19-1.32-.93 0-1.69.97-1.69 2.27 0 .83.28 1.39.28 1.39l-1.1 4.64a8.32 8.32 0 0 0-.05 2.44A9.12 9.12 0 0 1 15 5.87Z" fill="currentColor"/></symbol><symbol id="stopwatch" viewBox="0 0 35 35"><path d="m3.85 11.66-1.8-1.47a1.8 1.8 0 0 1 0-2.9 2.9 2.9 0 0 1 3.54 0L7.5 8.86c2-1.14 4.28-1.93 6.67-2.3V4.5H12.5c-.46 0-.83-.3-.83-.68V2.05C11.67.92 12.79 0 14.17 0h6.66c1.38 0 2.5.92 2.5 2.05v1.78c0 .38-.37.68-.83.68h-1.67v2.04a19.7 19.7 0 0 1 6.67 2.31L29.4 7.3a2.9 2.9 0 0 1 3.54 0c.97.8.97 2.1 0 2.9l-1.8 1.47A12.84 12.84 0 0 1 35 20.64C35 28.56 27.15 35 17.5 35S0 28.56 0 20.64c0-3.27 1.36-6.44 3.85-8.98Zm.56-3.4a.97.97 0 0 0-1.18 0 .6.6 0 0 0 0 .96l1.72 1.42c.4-.33.8-.64 1.22-.94L4.41 8.26Zm17.26-6.2c0-.39-.38-.7-.84-.7h-6.66c-.46 0-.84.31-.84.7v1.08h8.34V2.05ZM15.83 4.5v1.84c1.1-.08 2.23-.08 3.34 0V4.51h-3.34Zm15.94 3.75a.97.97 0 0 0-1.18 0L28.83 9.7c.42.3.83.6 1.22.94l1.72-1.42a.6.6 0 0 0 0-.96ZM17.5 33.63c8.73 0 15.83-5.82 15.83-12.99 0-3.15-1.4-6.2-3.93-8.57a15.2 15.2 0 0 0-2.32-1.77 17.8 17.8 0 0 0-9.58-2.64 17.8 17.8 0 0 0-9.58 2.64 15.2 15.2 0 0 0-2.32 1.77 11.73 11.73 0 0 0-3.93 8.57c0 7.17 7.1 13 15.83 13Z"/><path d="M17.5 22.7c-1.38 0-2.5-.92-2.5-2.06 0-.89.7-1.65 1.67-1.93v-4.9c0-.38.37-.69.83-.69.46 0 .83.31.83.69v4.9C19.3 19 20 19.75 20 20.64c0 1.14-1.12 2.06-2.5 2.06Zm0-2.74c-.46 0-.83.3-.83.68 0 .38.37.69.83.69.46 0 .83-.3.83-.69 0-.37-.37-.68-.83-.68Z"/><path d="M8.62 13.43a.6.6 0 0 1 .04-.03l.05-.04a13.34 13.34 0 0 1 5.25-2.55c.45-.1.9.1 1.04.46.13.36-.12.74-.56.85-1.46.35-2.82.96-3.98 1.78l.56.46a.6.6 0 0 1 0 .97.93.93 0 0 1-.6.2.93.93 0 0 1-.58-.2l-.56-.46a8.06 8.06 0 0 0-2.58 5.1h.8c.46 0 .83.3.83.67 0 .38-.37.69-.83.69h-.8a8.06 8.06 0 0 0 2.58 5.1l.56-.47a.97.97 0 0 1 1.18 0 .6.6 0 0 1 0 .97l-.56.46a12.07 12.07 0 0 0 6.2 2.12v-.66c0-.38.38-.69.84-.69.46 0 .83.31.83.69v.65c2.3-.14 4.46-.87 6.21-2.11l-.56-.46a.6.6 0 0 1 0-.97.97.97 0 0 1 1.18 0l.56.46a8.06 8.06 0 0 0 2.58-5.1h-.8c-.46 0-.83-.3-.83-.68 0-.37.37-.68.83-.68h.8a8.06 8.06 0 0 0-2.58-5.1l-.56.47a.93.93 0 0 1-.59.2.93.93 0 0 1-.59-.2.6.6 0 0 1 0-.97l.56-.46a11.75 11.75 0 0 0-3.98-1.78c-.44-.1-.69-.49-.56-.85.13-.36.6-.57 1.04-.46a13.34 13.34 0 0 1 5.3 2.59l.04.03A9.35 9.35 0 0 1 30 20.64a9.35 9.35 0 0 1-3.66 7.25l-.05.04a13.92 13.92 0 0 1-8.79 2.97c-3.31 0-6.43-1.06-8.8-2.97l-.04-.04-.04-.03A9.35 9.35 0 0 1 5 20.64a9.35 9.35 0 0 1 3.62-7.2Z"/><path d="M17.5 11.76c-.46 0-.83-.3-.83-.69 0-.37.37-.68.83-.68.46 0 .83.3.83.68 0 .38-.37.69-.83.69Z"/></symbol><symbol id="tag" viewBox="0 0 35 35"><path d="M11.07 8.58a.69.69 0 0 0-.97 0 .69.69 0 0 0 0 .97.69.69 0 0 0 .97 0 .69.69 0 0 0 0-.97Z"/><path d="M34.8 2.86 33.95 2l.85-.84a.68.68 0 0 0-.97-.97l-.84.84-.83-.83a.68.68 0 0 0-.49-.2H20.1a3.4 3.4 0 0 0-2.42 1l-5.77 5.77a.68.68 0 0 0 .96.97l5.78-5.78c.39-.39.9-.6 1.45-.6H31.4l.63.64-2.53 2.54a2.8 2.8 0 1 0 .96.97L33 2.98l.64.64V14.9c0 .55-.22 1.06-.6 1.45L16.33 33.03a2.04 2.04 0 0 1-2.9 0L1.97 21.56a2.04 2.04 0 0 1 0-2.9l7.37-7.37a.68.68 0 0 0-.97-.97L1 17.69a3.4 3.4 0 0 0 0 4.84L12.47 34a3.41 3.41 0 0 0 4.84 0L34 17.32c.65-.65 1-1.5 1-2.42L35 3.34a.68.68 0 0 0-.2-.48Zm-5.74 5.1a1.42 1.42 0 0 1-2.03 0 1.43 1.43 0 0 1 1.43-2.38l-.8.79a.68.68 0 0 0 .97.96l.8-.78c.13.48.01 1.03-.37 1.41Z"/><path d="M29.2 13.76 21.23 5.8a2.71 2.71 0 0 0-3.82 0L4.8 18.4a2.69 2.69 0 0 0 0 3.83l7.97 7.97a2.69 2.69 0 0 0 3.82 0L29.2 17.6a2.69 2.69 0 0 0 0-3.84Zm-.97 2.87-12.6 12.6a1.33 1.33 0 0 1-1.9 0l-7.96-7.96a1.33 1.33 0 0 1 0-1.9l12.6-12.6a1.34 1.34 0 0 1 1.9 0l7.96 7.96a1.33 1.33 0 0 1 0 1.9Z"/><path d="M22.29 13.68a.68.68 0 0 0-.97-.97l-.39.4a2.63 2.63 0 0 0-3.25.28c-.5.5-.75 1.18-.72 1.9a2.88 2.88 0 0 0 .85 1.9c.55.55.62 1.38.14 1.85-.47.48-1.3.42-1.86-.13-.55-.55-.6-1.39-.13-1.86a.68.68 0 0 0-.97-.97c-.85.85-.94 2.2-.29 3.25l-.47.47a.68.68 0 0 0 .97.97l.47-.47c.46.29.97.43 1.48.43.65 0 1.29-.24 1.77-.72 1-1 .94-2.7-.14-3.79a1.51 1.51 0 0 1-.45-1c-.02-.33.1-.64.31-.86.48-.47 1.31-.41 1.86.14s.61 1.38.14 1.86a.68.68 0 0 0 .97.96c.85-.85.94-2.2.29-3.25l.39-.4ZM15.37 25.01l-3.5-3.51a.68.68 0 0 0-.98.97l3.51 3.5a.68.68 0 0 0 .97 0 .68.68 0 0 0 0-.96ZM9.99 19.63a.69.69 0 0 0-.97 0 .69.69 0 0 0 0 .96.69.69 0 0 0 .97 0 .69.69 0 0 0 0-.96Z"/></symbol><symbol id="vk" viewBox="0 0 30 30"><path d="M21.62 17.45c-1.24-1.18-1.33-1.18-.27-2.54 1.33-1.73 3.09-3.91 1.5-3.91h-2.9c-.54 0-.63.36-.8.82-.7 1.73-2.12 4-2.65 3.63-.53-.36-.27-1.72-.27-3.9a.72.72 0 0 0-.17-.73c-.18-.18-.44-.37-.7-.37-.45-.09-.89-.18-1.33-.18-1.68 0-2.82.73-2.2.82 1.14.18 1.05 2.73.79 3.82-.44 1.9-2.2-1.46-3-3.18a.87.87 0 0 0-.88-.73h-2.3c-.35 0-.62.1-.62.36 0 .46 2.2 4.91 4.24 7.19 2.03 2.18 4.06 2 5.47 2 .18 0 .35-.1.44-.19a.7.7 0 0 0 .18-.45c0-1.46.53-2.18 1.5-1.18 1.06 1.09 1.32 1.82 2.64 1.82h2.39c.61 0 .79-.19.79-.46.09-.64-.97-1.82-1.85-2.64ZM15.35 0C23.55.18 30.1 7 30 15.27A14.9 14.9 0 0 1 14.9 30 14.98 14.98 0 0 1 0 15 15.19 15.19 0 0 1 15.35 0Z"/></symbol></svg>